<?xml version="1.0" encoding="UTF-8"?>
<svg version="1.1" xmlns="http://www.w3.org/2000/svg" width="500" height="500">
<path d="M0 0 C165 0 330 0 500 0 C500 165 500 330 500 500 C335 500 170 500 0 500 C0 335 0 170 0 0 Z " fill="#FEFEFE" transform="translate(0,0)"/>
<path d="M0 0 C2.52541824 0.00317294 5.04967568 -0.02042848 7.57495117 -0.0456543 C16.31219543 -0.08012519 24.16336926 0.25600557 32.46362305 3.31567383 C33.55674805 3.69208008 34.64987305 4.06848633 35.77612305 4.45629883 C56.15749561 12.86953983 70.52716258 26.87465003 79.14086914 47.09570312 C87.55136129 68.11195073 87.85571506 90.84476442 87.88916016 113.15991211 C87.90121258 116.96896864 87.95070112 120.7764809 88.00073242 124.58520508 C88.01018282 127.02920772 88.01742445 129.47322012 88.0222168 131.91723633 C88.04174911 133.04441071 88.06128143 134.17158508 88.08140564 135.33291626 C88.04160036 142.29135431 87.03833418 146.94963511 82.46362305 152.31567383 C77.18058619 157.13256037 71.41831101 156.56255791 64.65112305 156.62817383 C63.66563477 156.65717773 62.68014648 156.68618164 61.66479492 156.71606445 C55.80128502 156.76725695 51.87053059 156.6011046 47.46362305 152.31567383 C43.37264148 146.3261651 42.87162023 140.78149525 42.93237305 133.68286133 C42.92854614 132.68739288 42.92471924 131.69192444 42.92077637 130.66629028 C42.91806786 128.57365907 42.92535425 126.48099339 42.94213867 124.38842773 C42.96360852 121.19283532 42.94227689 117.99947935 42.91674805 114.80395508 C42.91939062 112.76358556 42.92451415 110.72321742 42.93237305 108.68286133 C42.92427612 107.73273163 42.9161792 106.78260193 42.90783691 105.80368042 C42.98772352 100.13511348 43.64363456 96.79129278 47.46362305 92.31567383 C51.45847977 88.79639529 53.73963838 87.18450937 59.03393555 87.21801758 C59.92983398 87.22124023 60.82573242 87.22446289 61.7487793 87.2277832 C63.15450195 87.24035156 63.15450195 87.24035156 64.58862305 87.25317383 C65.53350586 87.25768555 66.47838867 87.26219727 67.4519043 87.2668457 C69.78920692 87.27865026 72.12638366 87.29511624 74.46362305 87.31567383 C72.05343592 65.87769361 67.82133403 43.275931 50.9753418 28.06958008 C36.0121427 16.45913099 20.53315211 12.91869328 1.77612305 13.00317383 C0.77642487 13.00740356 0.77642487 13.00740356 -0.24346924 13.01171875 C-19.71649416 13.13573958 -37.87421445 16.58544895 -52.29418945 30.71411133 C-64.03983061 44.34232912 -69.99318889 60.51255205 -71.66137695 78.31567383 C-71.74774414 79.18579102 -71.83411133 80.0559082 -71.9230957 80.95239258 C-72.13282302 83.07296882 -72.33535537 85.19425462 -72.53637695 87.31567383 C-71.30661133 87.28086914 -70.0768457 87.24606445 -68.80981445 87.21020508 C-67.17701568 87.18205338 -65.54420205 87.1547547 -63.91137695 87.12817383 C-63.10313477 87.10303711 -62.29489258 87.07790039 -61.4621582 87.05200195 C-55.66398144 86.98129248 -51.38999542 87.71832692 -46.92700195 91.78051758 C-43.64509397 96.01777549 -41.30251921 99.15714283 -41.24584961 104.59008789 C-41.2330899 105.42485657 -41.2203302 106.25962524 -41.20718384 107.11968994 C-41.20495819 108.01452087 -41.20273254 108.90935181 -41.20043945 109.83129883 C-41.19378265 110.76109558 -41.18712585 111.69089233 -41.18026733 112.64886475 C-41.1701496 114.61574326 -41.16545004 116.58265604 -41.16577148 118.54956055 C-41.16141262 121.54119381 -41.12512352 124.53133413 -41.0871582 127.52270508 C-41.0812868 129.43806465 -41.07731957 131.35343118 -41.07543945 133.26879883 C-41.06106842 134.15553284 -41.04669739 135.04226685 -41.03189087 135.95587158 C-41.07493198 141.88314663 -42.17960557 146.3674819 -45.53637695 151.31567383 C-51.37484955 156.86934289 -56.7037749 156.5540455 -64.34887695 156.62817383 C-65.33436523 156.65717773 -66.31985352 156.68618164 -67.33520508 156.71606445 C-73.19871498 156.76725695 -77.12946941 156.6011046 -81.53637695 152.31567383 C-86.22086903 145.11367656 -86.09102849 138.67601225 -85.99731445 130.24536133 C-85.99492323 128.87786026 -85.99402614 127.51035585 -85.99453735 126.14285278 C-85.99142171 123.28325662 -85.97496545 120.42416613 -85.94799805 117.56469727 C-85.91421439 113.94084361 -85.90636506 110.31754852 -85.90788841 106.69355583 C-85.90733798 103.86895638 -85.89626163 101.04447354 -85.88188553 98.21991348 C-85.87261713 96.24728041 -85.86899823 94.2746233 -85.86557007 92.30197144 C-85.58651792 65.30527241 -78.69319069 40.18421749 -59.91137695 20.19067383 C-42.94200714 3.83743847 -22.62255286 -0.05938833 0 0 Z " fill="#030303" transform="translate(249.536376953125,175.684326171875)"/>
<path d="M0 0 C10.89 0 21.78 0 33 0 C32.08223102 4.5888449 31.29120924 6.52435333 28.83984375 10.30078125 C28.21142578 11.27724609 27.58300781 12.25371094 26.93554688 13.25976562 C26.27619141 14.26716797 25.61683594 15.27457031 24.9375 16.3125 C24.27427734 17.33923828 23.61105469 18.36597656 22.92773438 19.42382812 C21.29212034 21.95373473 19.64697371 24.47747382 18 27 C23.28 27 28.56 27 34 27 C34.495 27.99 34.495 27.99 35 29 C37.25229747 25.96002856 39.50141974 22.91772171 41.75 19.875 C42.70132813 18.59109375 42.70132813 18.59109375 43.671875 17.28125 C46.89265099 12.91978251 50.04759553 8.54789577 53 4 C54.58357459 4.31127516 56.16684993 4.62407289 57.75 4.9375 C58.63171875 5.11152344 59.5134375 5.28554687 60.421875 5.46484375 C62.63235053 5.92368488 64.81512068 6.43336074 67 7 C68.00701487 14.15819736 68.33345688 21.26793913 68.60546875 28.48632812 C68.66154297 29.82920898 68.66154297 29.82920898 68.71875 31.19921875 C68.74904297 32.00190186 68.77933594 32.80458496 68.81054688 33.6315918 C69.01181134 36.147657 69.45974974 38.53633851 70 41 C70.39791748 40.45585449 70.79583496 39.91170898 71.20581055 39.35107422 C73.03101322 36.85755841 74.85923069 34.36626808 76.6875 31.875 C77.31333984 31.0190625 77.93917969 30.163125 78.58398438 29.28125 C81.92728369 24.73016193 85.32403268 20.2874571 89 16 C93.83540096 18.61111652 97.87103901 21.37457083 102 25 C99.94235079 31.45353615 97.57616518 37.7361263 95 44 C100.19210472 40.19695186 105.15609762 36.23841458 110 32 C113.2826932 33.49076434 115.93077441 35.38620321 118.75 37.625 C119.54921875 38.25664062 120.3484375 38.88828125 121.171875 39.5390625 C121.77515625 40.02117187 122.3784375 40.50328125 123 41 C121.57037471 44.07049956 119.86616284 46.68960233 117.84765625 49.40625 C117.23599609 50.23253906 116.62433594 51.05882812 115.99414062 51.91015625 C115.35669922 52.76480469 114.71925781 53.61945313 114.0625 54.5 C113.42892578 55.35464844 112.79535156 56.20929688 112.14257812 57.08984375 C109.43890096 60.73454841 106.72282611 64.36956519 104 68 C110.27 68 116.54 68 123 68 C125.22088128 62.78248727 125.22088128 62.78248727 127.42724609 57.55883789 C129.77777778 52.11111111 129.77777778 52.11111111 132 51 C133.03877263 52.5506316 134.05542555 54.11609681 135.0625 55.6875 C135.91521484 56.99267578 135.91521484 56.99267578 136.78515625 58.32421875 C138.22264463 61.4903909 138.07053796 62.74556462 137 66 C136.04605164 68.02237052 135.05464649 70.0282696 134 72 C137.63 72 141.26 72 145 72 C146.98 75.63 148.96 79.26 151 83 C143.90790104 83.09092435 137.04042864 82.85523645 130 82 C129.608125 83.258125 129.21625 84.51625 128.8125 85.8125 C126.96115906 91.40212552 124.51454474 96.68268207 122 102 C121.34 102 120.68 102 120 102 C117.53017486 98.90660515 115.59958075 95.61809931 114 92 C114.375 88.8125 114.375 88.8125 116 86 C116.34546875 85.36707031 116.6909375 84.73414063 117.046875 84.08203125 C117.99225809 82.36595542 118.99197355 80.68004408 120 79 C119.07058594 79.12761719 118.14117187 79.25523437 117.18359375 79.38671875 C113.21663912 79.70523336 109.90991642 79.7854168 106 79 C103.46193235 76.42710466 102.0911427 73.93019816 100.46484375 70.71484375 C98.51115462 67.09400657 96.59393387 65.84079539 93 64 C94.62184501 60.41486894 96.79256239 57.41007677 99.125 54.25 C99.84945312 53.26515625 100.57390625 52.2803125 101.3203125 51.265625 C102.15175781 50.14414063 102.15175781 50.14414063 103 49 C102.49210938 49.38671875 101.98421875 49.7734375 101.4609375 50.171875 C100.03294185 51.25223126 98.59902659 52.32479511 97.16015625 53.390625 C95.86028088 54.35906741 94.57208113 55.34391632 93.30859375 56.359375 C91.8125 57.5 91.8125 57.5 89 59 C85.72603721 58.2386133 83.80935535 56.87290357 81 55 C81.64820844 50.96918659 82.93340188 47.54875068 84.5625 43.8125 C86.36645094 40.0333496 86.36645094 40.0333496 87 36 C83.7 40.62 80.4 45.24 77 50 C72 48 72 48 69.75 46.5625 C66.01638763 44.44112934 62.09197855 43.25701302 58 42 C58 40.02 58 38.04 58 36 C51.565 35.505 51.565 35.505 45 35 C44.34 35.99 43.68 36.98 43 38 C42.35740234 37.83846436 41.71480469 37.67692871 41.05273438 37.51049805 C37.0678431 36.84411868 33.1896506 36.83756174 29.15625 36.83203125 C28.30953735 36.82870285 27.46282471 36.82537445 26.5904541 36.82194519 C24.80526267 36.81689629 23.02006185 36.81453623 21.23486328 36.81469727 C18.50928204 36.81250746 15.78410365 36.79432119 13.05859375 36.77539062 C11.32031388 36.77245691 9.58203209 36.77047197 7.84375 36.76953125 C7.03216431 36.76234573 6.22057861 36.75516022 5.38439941 36.74775696 C1.08283253 36.76507273 -2.03554842 37.15182199 -6 39 C-8 38.6875 -8 38.6875 -10 38 C-14.85823415 36.51553957 -18.23160145 37.62605465 -23 39 C-23 40.98 -23 42.96 -23 45 C-23.6290625 45.20753906 -24.258125 45.41507813 -24.90625 45.62890625 C-30.83140124 47.76160376 -34.87686058 50.21978576 -39.30859375 54.70703125 C-39.86675781 55.13371094 -40.42492187 55.56039062 -41 56 C-44.48872415 54.83709195 -45.09976864 53.86032391 -47.1875 50.9375 C-47.71730469 50.20402344 -48.24710938 49.47054687 -48.79296875 48.71484375 C-49.19128906 48.14894531 -49.58960938 47.58304688 -50 47 C-53.40212299 48.61382757 -56.10324519 50.58603766 -59 53 C-57.5140084 57.59306496 -55.14985318 60.43569245 -52 64 C-54.33333333 66.33333333 -56.66666667 68.66666667 -59 71 C-59.99 71 -60.98 71 -62 71 C-63.875 69.05078125 -63.875 69.05078125 -66 66.3125 C-66.78375 65.31734375 -67.5675 64.3221875 -68.375 63.296875 C-68.79523438 62.76255859 -69.21546875 62.22824219 -69.6484375 61.67773438 C-71.06235777 59.92259346 -72.52113055 58.21632487 -74 56.515625 C-74.49886719 55.94030029 -74.99773437 55.36497559 -75.51171875 54.7722168 C-76.48878469 53.64977704 -77.47042583 52.53130033 -78.45703125 51.41723633 C-80.98637559 48.48835399 -82.03723768 46.85104929 -83 43 C-80.03 41.02 -77.06 39.04 -74 37 C-71.69 39.97 -69.38 42.94 -67 46 C-63.84866512 44.16172132 -60.88035092 42.24027294 -58 40 C-59.02046533 36.938604 -59.81090589 35.17828874 -62.1875 32.9375 C-64 31 -64 31 -64.125 29.0625 C-62.36340109 25.832902 -59.96253433 24.17655583 -57 22 C-56.34 22 -55.68 22 -55 22 C-53.62508701 23.50787161 -52.32635538 25.08539761 -51.0625 26.6875 C-45.82399383 33.21946449 -40.40852754 39.60810382 -35 46 C-34.67 34.45 -34.34 22.9 -34 11 C-25 7 -25 7 -22.3046875 6.84375 C-18.72713352 8.63859064 -16.60924406 11.41799218 -14.125 14.5 C-13.6005127 15.13059326 -13.07602539 15.76118652 -12.53564453 16.41088867 C-9.01731441 20.66469199 -5.59735507 24.99460425 -2.3046875 29.42578125 C-1.06697902 31.13454489 -1.06697902 31.13454489 1 32 C1.21398437 31.35675781 1.42796875 30.71351563 1.6484375 30.05078125 C3.53258317 25.79783973 6.0659381 22.0618158 8.625 18.1875 C9.140625 17.39923828 9.65625 16.61097656 10.1875 15.79882812 C11.45439144 13.86329953 12.72666504 11.93129567 14 10 C7.07 9.505 7.07 9.505 0 9 C0 6.03 0 3.06 0 0 Z " fill="#060606" transform="translate(229,122)"/>
<path d="M0 0 C1 3 1 3 -0.5625 6.5625 C-2.32791033 9.49865614 -2.9356298 9.97152857 -6.25 11.4375 C-7.1575 11.623125 -8.065 11.80875 -9 12 C-9.33 13.65 -9.66 15.3 -10 17 C-6.18384668 16.44507838 -4.53605107 14.8312837 -1.9375 12.0625 C3.58977291 6.21695801 3.58977291 6.21695801 8.25 5.5 C12.57575875 6.07676783 14.56204207 7.12090176 17.671875 10.09765625 C19.68596126 12.98253862 19.78338869 15.25441844 19.48828125 18.703125 C18.04800563 25.4781815 14.05237855 31.32654984 9 36 C5.53686806 38.0467042 3.03213894 38.34316076 -1 38 C-1.99 37.34 -2.98 36.68 -4 36 C-2.75437756 32.55058402 -1.56482948 29.65643053 1 27 C2.010625 26.71125 3.02125 26.4225 4.0625 26.125 C5.031875 25.75375 6.00125 25.3825 7 25 C8.45160938 21.98220128 8.45160938 21.98220128 9 19 C5.18539766 19.55345793 3.57761202 21.15347764 1 23.9375 C-2.39410791 27.59014347 -4.88151095 29.67762123 -9.875 30.4375 C-14.2682371 29.82244681 -15.84565969 28.08098355 -19 25 C-20.63417107 21.73165786 -20.52512512 18.53101375 -20 15 C-16.38287045 5.38135504 -10.58389621 -1.11409434 0 0 Z " fill="#060606" transform="translate(145,181)"/>
<path d="M0 0 C0 11.22 0 22.44 0 34 C-7.29500471 31.08199811 -7.29500471 31.08199811 -10 28 C-10.85395203 24.36876659 -10.87984713 20.84274699 -10.875 17.125 C-10.92785156 16.14402344 -10.98070312 15.16304688 -11.03515625 14.15234375 C-11.05532805 11.16288342 -10.93477602 8.84443765 -10 6 C-7.5713358 3.56899942 -3.67501131 0 0 0 Z " fill="#080808" transform="translate(160,280)"/>
<path d="M0 0 C7.52605297 2.50868432 7.52605297 2.50868432 10 5 C10.93436756 8.54524658 10.78651684 12.15832306 10.8125 15.8125 C10.89854492 17.29073242 10.89854492 17.29073242 10.98632812 18.79882812 C11.02057889 21.79879179 10.91607078 24.13818375 10 27 C7.31981604 29.69439559 4.4542765 31.44191314 1 33 C0.67 33 0.34 33 0 33 C0 22.11 0 11.22 0 0 Z " fill="#070707" transform="translate(340,281)"/>
<path d="M0 0 C0.33 0 0.66 0 1 0 C1 4.29 1 8.58 1 13 C-1.31 12.67 -3.62 12.34 -6 12 C-5.36747553 8.80862651 -4.24396936 6.48762632 -2.5 3.75 C-2.0565625 3.04359375 -1.613125 2.3371875 -1.15625 1.609375 C-0.7746875 1.07828125 -0.393125 0.5471875 0 0 Z " fill="#DADADA" transform="translate(286,137)"/>
<path d="M0 0 C3.78318216 3.78318216 5.53673537 6.42536568 8 11 C5.69 11.66 3.38 12.32 1 13 C0.67 8.71 0.34 4.42 0 0 Z " fill="#EEEEEE" transform="translate(204,140)"/>
<path d="M0 0 C-1.75 5.75 -1.75 5.75 -4 8 C-6.625 8.125 -6.625 8.125 -9 8 C-7.13554727 3.64961029 -5.02378599 0 0 0 Z " fill="#F0F0F0" transform="translate(155,200)"/>
</svg>
